<svg xmlns="http://www.w3.org/2000/svg" viewBox="0 0 400 300" width="406" height="306" class="illustration styles_illustrationTablet__1DWOa"><g id="_379_fitness_outline" data-name="#379_fitness_outline"><path d="M251,161.06s28.59,2.73,32.28,5.11c10.14,6.53,2.73,62.37,2.73,62.37H269.09L268.22,186h-21.4Z" fill="#ffc9b0"></path><path d="M286,229.54H269.09a1,1,0,0,1-1-1l-.85-41.6H246.82a1,1,0,0,1-.76-.35,1,1,0,0,1-.23-.81L250,160.9a1,1,0,0,1,1.08-.84c3,.29,28.94,2.83,32.73,5.27,4.59,2.95,6.43,14.24,5.62,34.51-.58,14.66-2.42,28.69-2.44,28.83A1,1,0,0,1,286,229.54Zm-15.89-2h15c2.05-16,5.34-55.55-2.39-60.53-2.49-1.6-19.5-3.75-30.91-4.87L248,185h20.22a1,1,0,0,1,1,1Z" fill="#093f68"></path><path d="M118.05,142.41s-5.58-3.84-12.64,1.8-7.52,10.54-6.2,11.18,3.81-1.77,3.81-1.77a26,26,0,0,0-.22,15.94c2.78,9.17,7.53,13.58,20.13,14.37a33,33,0,0,0,17.64-4.33s4.06-11.49-1.77-19.31S118.05,142.41,118.05,142.41Z" fill="#725858"></path><path d="M124.62,185c-.58,0-1.16,0-1.75,0-12.23-.77-17.93-4.86-21-15.08a27.55,27.55,0,0,1-.56-13.76,2.89,2.89,0,0,1-2.5.2,2.14,2.14,0,0,1-1.13-1.84c-.25-2.25,1.47-6.49,7.13-11,7.52-6,13.52-2.06,13.83-1.85.66.44,15.14,10.25,21,18.11,6.08,8.15,2.09,19.75,1.91,20.24a1,1,0,0,1-.41.52A34.12,34.12,0,0,1,124.62,185ZM103,152.62a1,1,0,0,1,.56.17A1,1,0,0,1,104,154a25.23,25.23,0,0,0-.2,15.28c2.44,8,6.37,12.85,19.24,13.66a32.08,32.08,0,0,0,16.75-4c.58-1.91,3.16-11.48-1.74-18.05-5.66-7.59-20.36-17.54-20.51-17.64h0c-.22-.14-5.11-3.31-11.46,1.77s-6.74,9-6.31,9.54a5.79,5.79,0,0,0,2.61-1.64A1,1,0,0,1,103,152.62Zm37.55,27h0Z" fill="#093f68"></path><path d="M152.27,166c-.77,4.63-4,8.43-7.75,11.06-1.94,1.38-4.42,3.75-6.91,2.42a7.44,7.44,0,0,1-2.52-2.56,26.22,26.22,0,0,0-5.48-6.52c-2.78-2.07-6.53-2.12-9.13-4.69-4.56-4.49-1.41-10.73-1.42-16.23,0-.61,0-6.89-1-7.08l18.55,3.1C146.86,147.22,154,155.59,152.27,166Z" fill="#ffc9b0"></path><path d="M139.14,180.88a4.22,4.22,0,0,1-2-.51,8.35,8.35,0,0,1-2.88-2.89,25.35,25.35,0,0,0-5.25-6.27,15,15,0,0,0-3.87-1.84,13.83,13.83,0,0,1-5.36-2.93c-3.61-3.55-2.88-8.14-2.23-12.19a31.52,31.52,0,0,0,.51-4.76,23.3,23.3,0,0,0-.54-6.23,1,1,0,0,1,.7-1.84l18.55,3.1a20.68,20.68,0,0,1,12.95,7.35,18,18,0,0,1,3.54,14.31h0c-.73,4.35-3.63,8.51-8.16,11.71l-.81.6C142.88,179.54,141.09,180.88,139.14,180.88ZM119.7,143.7a33.6,33.6,0,0,1,.36,5.79,32.33,32.33,0,0,1-.54,5.07c-.62,3.92-1.21,7.63,1.66,10.45a12,12,0,0,0,4.64,2.48,16.59,16.59,0,0,1,4.39,2.12,26.8,26.8,0,0,1,5.71,6.77,6.53,6.53,0,0,0,2.16,2.22c1.48.79,3-.21,5-1.71.29-.22.58-.44.86-.63,4.09-2.89,6.7-6.59,7.34-10.41a16,16,0,0,0-3.13-12.74,18.69,18.69,0,0,0-11.72-6.61ZM152.27,166h0Z" fill="#093f68"></path><circle cx="130.15" cy="150.68" r="1.74" fill="#093f68"></circle><path d="M131.67,146.27s8.45-3.11,8.55-1.88a19.5,19.5,0,0,1-.62,4.11" fill="#ffc9b0"></path><path d="M139.6,149.5a1,1,0,0,1-.24,0,1,1,0,0,1-.73-1.21,23.17,23.17,0,0,0,.57-3.15,44.15,44.15,0,0,0-7.18,2.1,1,1,0,0,1-1.29-.6,1,1,0,0,1,.6-1.28c7.86-2.89,8.95-2.2,9.31-2a1.25,1.25,0,0,1,.57.95,19.34,19.34,0,0,1-.64,4.43A1,1,0,0,1,139.6,149.5Z" fill="#093f68"></path><path d="M126.35,167.29s-3.9,4-.27,7.13,10.92,1.92,10.17-5.92" fill="#ffc9b0"></path><path d="M130.46,177a7.77,7.77,0,0,1-5-1.84,5,5,0,0,1-1.89-3.63,7.61,7.61,0,0,1,2.09-5,1,1,0,0,1,1.44,1.39,5.59,5.59,0,0,0-1.53,3.49,3,3,0,0,0,1.19,2.19,5.69,5.69,0,0,0,6.08.81c1.85-1,2.72-3.05,2.45-5.88a1,1,0,1,1,2-.19c.35,3.64-.93,6.5-3.52,7.84A7.1,7.1,0,0,1,130.46,177Z" fill="#093f68"></path><path d="M124.39,157.6a2.08,2.08,0,0,1-.68-.12,2,2,0,0,1-1.2-2.56l2.65-7.32a2,2,0,0,1,3.77,1.37l-2.65,7.31A2,2,0,0,1,124.39,157.6Z" fill="#093f68"></path><path d="M140.35,160a1,1,0,0,1,0-2,4.17,4.17,0,0,0,4.34-4.42,1,1,0,0,1,1-1h0a1,1,0,0,1,1,1,7.3,7.3,0,0,1-.67,3.11,6,6,0,0,1-5.59,3.39Z" fill="#093f68"></path><path d="M162.15,149.56l2.2-.85a19.43,19.43,0,0,1,11.08-1.13c3.6.82,6.71,3,10.27,3.92s7.44,0,11.22.2l16.48.73L212.09,186h-49.7a13.56,13.56,0,0,1-13.56-13.56v-8.68C148.83,155.76,155.57,152.18,162.15,149.56Z" fill="#68e1fd"></path><path d="M212.09,187h-49.7a14.57,14.57,0,0,1-14.56-14.56v-8.68c0-8.37,6.71-12.2,13.95-15.09l2.22-.86a20.32,20.32,0,0,1,11.65-1.16,28.22,28.22,0,0,1,5.54,2.07,28.75,28.75,0,0,0,4.75,1.85,21.56,21.56,0,0,0,6.74.27,40.64,40.64,0,0,1,4.29-.1l16.47.73a1,1,0,0,1,1,1L213.09,186A1,1,0,0,1,212.09,187ZM172,148.21a20.57,20.57,0,0,0-7.26,1.43l-2.19.85h0c-7.62,3-12.69,6.45-12.69,13.23v8.68A12.57,12.57,0,0,0,162.39,185h48.73l1.24-31.58-15.48-.69a39.63,39.63,0,0,0-4.08.11,23.38,23.38,0,0,1-7.35-.33,31.4,31.4,0,0,1-5.09-2,27,27,0,0,0-5.15-1.94A14.89,14.89,0,0,0,172,148.21Zm-9.82,1.35h0Z" fill="#093f68"></path><polygon points="262.02 185.96 212.09 185.96 213.4 152.43 262.02 155.8 262.02 185.96" fill="#f56132"></polygon><path d="M262,187H212.09a1,1,0,0,1-.72-.31,1,1,0,0,1-.28-.73l1.31-33.53a1,1,0,0,1,.33-.71,1,1,0,0,1,.74-.25l48.62,3.38a1,1,0,0,1,.93,1V186A1,1,0,0,1,262,187Zm-48.89-2H261V156.74l-46.66-3.24Z" fill="#093f68"></path><path d="M150.25,115.08h17.08a0,0,0,0,1,0,0v55a8.54,8.54,0,0,1-8.54,8.54h0a8.54,8.54,0,0,1-8.54-8.54v-55a0,0,0,0,1,0,0Z" transform="translate(22.52 -21.11) rotate(8.18)" fill="#ffc9b0"></path><path d="M155.49,179.42a9.12,9.12,0,0,1-1.37-.1,9.55,9.55,0,0,1-8.08-10.8L153.87,114a1,1,0,0,1,1.13-.85l16.91,2.43a1,1,0,0,1,.66.39,1,1,0,0,1,.19.75l-7.84,54.48A9.55,9.55,0,0,1,155.49,179.42Zm.22-64.1L148,168.8A7.54,7.54,0,1,0,162.94,171l7.7-53.49Z" fill="#093f68"></path><circle cx="167.4" cy="87" r="38.01" fill="#68e1fd"></circle><path d="M167.4,126a39,39,0,1,1,39-39A39.06,39.06,0,0,1,167.4,126Zm0-76a37,37,0,1,0,37,37A37.05,37.05,0,0,0,167.4,50Z" fill="#093f68"></path><circle cx="167.4" cy="87" r="29.32" fill="#68e1fd"></circle><path d="M167.4,117.33A30.33,30.33,0,1,1,197.72,87,30.36,30.36,0,0,1,167.4,117.33Zm0-58.65A28.33,28.33,0,1,0,195.72,87,28.35,28.35,0,0,0,167.4,58.68Z" fill="#093f68"></path><circle cx="167.4" cy="87" r="5.5" fill="#093f68"></circle><path d="M167.4,93.51A6.51,6.51,0,1,1,173.9,87,6.52,6.52,0,0,1,167.4,93.51Zm0-11a4.51,4.51,0,1,0,4.5,4.5A4.51,4.51,0,0,0,167.4,82.5Z" fill="#093f68"></path><path d="M269.09,228.54v12.22h30.85a1.43,1.43,0,0,0,.78-2.63L286,228.54Z" fill="#68e1fd"></path><path d="M299.94,241.76H269.09a1,1,0,0,1-1-1V228.54a1,1,0,0,1,1-1H286a1,1,0,0,1,.54.16l14.76,9.59a2.43,2.43,0,0,1-1.32,4.47Zm-29.85-2h29.85a.39.39,0,0,0,.41-.31.39.39,0,0,0-.18-.48l-14.51-9.43H270.09Z" fill="#093f68"></path><path d="M112.85,186H255.18a11.32,11.32,0,0,1,11.32,11.32v1.54a5.22,5.22,0,0,1-5.22,5.22H106.75a5.22,5.22,0,0,1-5.22-5.22v-1.54A11.32,11.32,0,0,1,112.85,186Z" fill="#093f68"></path><path d="M261.28,205H106.75a6.23,6.23,0,0,1-6.22-6.22v-1.54A12.33,12.33,0,0,1,112.85,185H255.18a12.34,12.34,0,0,1,12.32,12.32v1.54A6.23,6.23,0,0,1,261.28,205ZM112.85,187a10.33,10.33,0,0,0-10.32,10.32v1.54a4.22,4.22,0,0,0,4.22,4.22H261.28a4.22,4.22,0,0,0,4.22-4.22v-1.54A10.33,10.33,0,0,0,255.18,187Z" fill="#093f68"></path><rect x="120.29" y="204.04" width="9.86" height="31.53" fill="#093f68"></rect><path d="M130.15,236.58h-9.86a1,1,0,0,1-1-1V204a1,1,0,0,1,1-1h9.86a1,1,0,0,1,1,1v31.54A1,1,0,0,1,130.15,236.58Zm-8.86-2h7.86V205h-7.86Z" fill="#093f68"></path><rect x="113.86" y="235.58" width="21.41" height="5.43" rx="2.71" fill="#093f68"></rect><path d="M132.56,242h-16a3.72,3.72,0,1,1,0-7.43h16a3.72,3.72,0,0,1,0,7.43Zm-16-5.43a1.72,1.72,0,1,0,0,3.43h16a1.72,1.72,0,0,0,0-3.43Z" fill="#093f68"></path><rect x="235.12" y="204.04" width="9.86" height="31.53" fill="#093f68"></rect><path d="M245,236.58h-9.87a1,1,0,0,1-1-1V204a1,1,0,0,1,1-1H245a1,1,0,0,1,1,1v31.54A1,1,0,0,1,245,236.58Zm-8.87-2H244V205h-7.87Z" fill="#093f68"></path><rect x="228.7" y="235.58" width="21.41" height="5.43" rx="2.71" fill="#093f68"></rect><path d="M247.39,242h-16a3.72,3.72,0,0,1,0-7.43h16a3.72,3.72,0,1,1,0,7.43Zm-16-5.43a1.72,1.72,0,0,0,0,3.43h16a1.72,1.72,0,1,0,0-3.43Z" fill="#093f68"></path><path d="M285.23,236.58a1,1,0,0,1-.67-.25,1,1,0,0,1-.08-1.42l4.24-4.75a1,1,0,0,1,1.5,1.33L286,236.24A1,1,0,0,1,285.23,236.58Z" fill="#093f68"></path></g></svg>