<svg id="Layer_2" data-name="Layer 2" xmlns="http://www.w3.org/2000/svg" xmlns:xlink="http://www.w3.org/1999/xlink" viewBox="0 0 400 300" width="406" height="306" class="illustration styles_illustrationTablet__1DWOa"><defs><linearGradient id="linear-gradient" x1="100.59" y1="90.45" x2="76.53" y2="121.16" gradientTransform="matrix(1, 0, 0, -1, 0, 302)" gradientUnits="userSpaceOnUse"><stop offset="0" stop-color="#fff" stop-opacity="0.03"></stop><stop offset="0.99" stop-color="#c1272d"></stop></linearGradient><linearGradient id="linear-gradient-2" x1="335.9" y1="96.38" x2="311.34" y2="127.73" xlink:href="#linear-gradient"></linearGradient><linearGradient id="linear-gradient-3" x1="230.03" y1="76.25" x2="205.47" y2="107.61" gradientTransform="matrix(1, 0, 0, -1, 0, 302)" gradientUnits="userSpaceOnUse"><stop offset="0" stop-color="#fff" stop-opacity="0.03"></stop><stop offset="0.99" stop-color="gray"></stop></linearGradient></defs><title>380_Fitness_Isometric</title><path d="M194.51,286.14,22,184.2c-5.49-3.08-10.2-8.15-4.85-11.46L190.29,73c2.6-1.61,6.54-2.66,9.18-1.13l181.07,105c5.49,3.19,6.48,12.1,1,15.29L217.25,286A22.94,22.94,0,0,1,194.51,286.14Z" fill="#ffbe30"></path><path d="M62.62,171.49c-6,3.46-11.94,7.08-17.67,11l61.19,42.83L129.9,207Z" opacity="0.32" fill="url(#linear-gradient)" style="isolation: isolate;"></path><path d="M297.12,164.74c-6.14,3.54-12.19,7.23-18,11.21l62.46,43.72L365.81,201Z" opacity="0.32" fill="url(#linear-gradient-2)" style="isolation: isolate;"></path><polygon points="295.01 217.13 235.77 251.23 91.28 167.69 150.52 133.17 295.01 217.13" fill="#68e1fd"></polygon><path d="M202.13,105.64s-20.14,6.93-22.6,11-2.78,27.68-7.86,40.62a3.79,3.79,0,0,0,4.75,2.29c3.6-1,9.34-21.78,10.48-27.84s1.8-8.19,1.8-8.19l18.93-2.5Z" fill="#ffbeb3"></path><path d="M173,157.65s1.12-3.81.13-5.37-1.86-.32-2.6,1.17a21.1,21.1,0,0,1-1.36,2.85c-.49.62-4.7,5.82-6.81,5.94s-6.93.55-6.19,3.8S163,170.89,168,169.9s6.43-4.08,10.76-2.72,5.94-.87,6.68-2.35-4.33-8.91-4.33-8.91S176.83,159,173,157.65Z" fill="#050817"></path><path d="M223.88,137.35s4,25.27,4.72,28.8,2.32,37.57,2,39.76,3,11.48,7.47.23c0,0,3.52-32.58,3.19-37.13s.86-32.53.43-36.56" fill="#ffbeb3"></path><path d="M226.41,178.8c4.92,1.46,9.38,1.91,14.29,0,.7-.37.57-3.38.61-4,.22-3.05.32-6.11.42-9.17.32-9.7,0-19.4,1.27-29.05a65.24,65.24,0,0,0-.08-16.77,44.53,44.53,0,0,0-2-8.81,31.19,31.19,0,0,0-1.74-4.07c-.31-.59-1.67-3.63-2.35-3.71L215,100.06l-33.48,12.79s0,6.82,8.1,12.54c0,0,22.83-1.55,28-2.77C217.68,122.62,224.89,174,226.41,178.8Z" fill="#047877"></path><path d="M222.39,51s-11.5-2.21-14-4.28-6.34-5.6-11.06-7.82-13.57-3.83-15.78-6a70.77,70.77,0,0,0-9-7.53l-5-1.07a3.25,3.25,0,0,0,2.5,2.68c2.41.8,3.66,1.7,4.29,3s1.61,2.41.63,2.59-5-.8-5,.18,3.75,1.7,5.45,2.41,10.36,7.5,15.63,10.18,18.67,11.34,19.65,13.4a30.66,30.66,0,0,1,1.7,5.09S235.78,77,238.81,77.19s5.89-1.34,8.13,0,13.93,4.91,18.4,7.14,11.61,5.81,15.27,6.52,6.25,1.61,7.77,2.77,2.77,3.3,3.93,4.73,2.14,2.68,2.5,2.23-.71-2.41-1.34-4-.71-2.32.45-2.32,8.4,3.66,9.56,3.13-4.11-5-5.54-6.61-9-2.41-10.45-3.22S262.21,75,259.89,72.9s-13.84-9.82-17-12.33S228.74,52.88,222.39,51Z" fill="#ffbeb3"></path><path d="M235.84,98.7a33.79,33.79,0,0,1,.7-6.88c1-5.75,2-8.79,2.28-14.62-.8-1.44-.42-5.82,0-8.25,1.21-6.34,4.16-8,4.16-8a8.14,8.14,0,0,0-2-1.74c-.75-.3-7.25,2.72-9.06,10,0,0-12.83-3.62-13.81-5.43s3.69-11.29,6.89-11.9-3.24-2.42-3.24-2.42-11.2,11.69-12.12,18.69,3.45,29,5,32.53,11.34,9.89,22.3,3.29A27.92,27.92,0,0,1,235.84,98.7Z" fill="#68e1fd"></path><path d="M245.87,31.06a6.36,6.36,0,0,0-7.49-5l-.12,0A8.81,8.81,0,0,0,232,30.35c-5.84-2-12.29.83-14.73,4.49-3.06,4.59.45,7.82.45,7.82l11.15,11.15a30.66,30.66,0,0,0,5.24-2.07c2.87-1.52,5-7.36,4.71-12.42a6.28,6.28,0,0,0,3.27-.44A6.84,6.84,0,0,0,245.87,31.06Z" fill="#050817"></path><path d="M217.71,42.67S218.88,57.6,223,58.32s6.92-2.61,7.55-4.14a6.48,6.48,0,0,0,.54-2.7s3.69-1.89,2.88-4-3,.9-3.6.63-2.34-.63-2.61-3.51S221.49,45,217.71,42.67Z" fill="#ffbeb3"></path><path d="M227.6,207.42s-.29-3.53,2.06-3.53,5,.73,5.14,2.64a33.77,33.77,0,0,1,0,4.11s3.53-8.23,4.26-8.08,1.32,2.94,1.18,4-1.91,9.33-2.64,10.94-4.87,7.2-10,7.49-7.48-3.08-6.45-5.29S227,213.59,227.6,207.42Z" fill="#050817"></path><path d="M181.55,112.85s-4.13.91-4.88,10.68l10.52,6.71,2.47-4.85" fill="#047877"></path><path d="M235.28,180l1.46-.07A310.07,310.07,0,0,0,233.23,106c-.16-.92-1.56-.53-1.4.39A308.43,308.43,0,0,1,235.28,180Z" fill="#f98506"></path><ellipse cx="288.4" cy="163.67" rx="15.86" ry="8.87" transform="translate(2.8 332.16) rotate(-60.11)" fill="#bc3b9b"></ellipse><polyline points="301.47 152.89 296.43 149.98 281.73 163.34 280.62 177.36 285.66 180.27" fill="#bc3b9b"></polyline><ellipse cx="293.57" cy="166.58" rx="15.81" ry="8.84" transform="translate(2.52 337.53) rotate(-60)" fill="#e47dc4"></ellipse><path d="M325.51,179.14l-28.61-15.2a2.27,2.27,0,0,0-1.22-.27,4.67,4.67,0,0,0-4.67,4.67s0,.09,0,.13a2.3,2.3,0,0,0,1.21,2.14l29.26,15.72a2.29,2.29,0,0,0,3.06-.85l1.87-3.15a2.29,2.29,0,0,0-.81-3.14Z" fill="#68e1fd"></path><ellipse cx="330.15" cy="185.79" rx="15.86" ry="8.87" transform="translate(4.56 379.46) rotate(-60.11)" fill="#bc3b9b"></ellipse><polyline points="343.3 175.14 338.25 172.23 323.56 185.59 322.45 199.61 327.49 202.52" fill="#bc3b9b"></polyline><ellipse cx="335.4" cy="188.83" rx="15.81" ry="8.84" transform="translate(4.17 384.88) rotate(-60)" fill="#e47dc4"></ellipse><ellipse cx="335.92" cy="189.13" rx="7.55" ry="4.22" transform="translate(4.17 385.48) rotate(-60)" fill="#bc3b9b"></ellipse><polyline points="342.11 183.99 339.69 182.6 332.68 188.98 332.15 195.67 334.56 197.06" fill="#bc3b9b"></polyline><ellipse cx="338.33" cy="190.53" rx="7.55" ry="4.22" transform="translate(4.16 388.27) rotate(-60)" fill="#ffb3eb"></ellipse><polyline points="44.95 165.06 44.95 180.38 69.73 180.38 69.73 165.06" fill="#68e1fd"></polyline><ellipse cx="57.34" cy="165.06" rx="12.39" ry="6.1" fill="#dd654a"></ellipse><ellipse cx="57.34" cy="180.98" rx="12.39" ry="6.1" fill="#68e1fd"></ellipse><path d="M71.21,129.45c-2.61-1.07-6.24-4.63-9.4-4.52a37,37,0,0,0-1.92,9.4A85.32,85.32,0,0,0,59.54,150q.11,1.75.29,3.49a2.78,2.78,0,0,0,.28,1v12.13a.39.39,0,0,0,.77,0V155a17.19,17.19,0,0,0,3.55-1.64,12.08,12.08,0,0,0,5-6.27c2-5.57.74-11.79,2.64-17.3C71.77,129.66,71.49,129.56,71.21,129.45Z" fill="#297600"></path><path d="M65.86,120.32a9.71,9.71,0,0,0-3.54,3.62,6.07,6.07,0,0,0-.56,1.07l-.11.23h0a16.2,16.2,0,0,0-.6,1.92,2.39,2.39,0,0,1,1.32-1,3.28,3.28,0,0,1,2.07-.19,8.66,8.66,0,0,1,1.9,1c.89.54,1.73,1.13,2.61,1.69,4.11,2.61,9.57,2.88,12.74-.93a2.78,2.78,0,0,1,.11-.46C82.27,124.66,74.94,115,65.86,120.32Z" fill="#5fad00"></path><path d="M79.87,129.34l.51-.34a.35.35,0,0,0-.1-.29c-2.48-2.55-5.15-5-8.54-6.3a14.63,14.63,0,0,0-7.63-.75c-.27.32-.53.66-.78,1a13.24,13.24,0,0,1,8.77.73c3,1.28,5.38,3.57,7.63,5.87A.37.37,0,0,0,79.87,129.34Z" fill="#297600"></path><path d="M38.27,134.89a10.35,10.35,0,0,0-5.54,9.93c.29,7.31,12.34.17,15.54-6s3.7,2.63,3.7,2.63" fill="#297600"></path><path d="M49.12,132.33a21.82,21.82,0,0,0-6.69.93,16.22,16.22,0,0,0-4.16,1.62,13.42,13.42,0,0,0,2.41,1.28A7.32,7.32,0,0,1,44.57,139a5.56,5.56,0,0,1,.46,1.1c.74,2.4.1,5.32,1.09,7.74s3,4.55,5.85,4.73c3.39.21,5-3.05,5.62-5.87s1.59-6.67.52-9.57C56.87,133.71,52.33,132.49,49.12,132.33Z" fill="#5fad00"></path><path d="M53.59,143.74c-1.42-4.62-4.45-9-8.87-11h-.17l-.21.07-.8.21c5.15,1.91,8.38,7,9.7,12.18,1.69,6.64,1.12,13.82,1.14,20.61a.36.36,0,0,0,.71,0C55.08,158.54,55.75,150.77,53.59,143.74Z" fill="#297600"></path><path d="M182.66,180.13a5.44,5.44,0,0,0-.5-.22,20.29,20.29,0,0,0-10.38,2.15c-5.87,3.26-2.72,9,.58,13.18l63.48,44.43L260.09,221Z" opacity="0.32" fill="url(#linear-gradient-3)" style="isolation: isolate;"></path></svg>