<svg xmlns="http://www.w3.org/2000/svg" xmlns:xlink="http://www.w3.org/1999/xlink" viewBox="0 0 400 300" width="406" height="306" class="illustration styles_illustrationTablet__1DWOa"><defs><linearGradient id="linear-gradient" x1="152.56" y1="220.05" x2="196.08" y2="173.85" gradientUnits="userSpaceOnUse"><stop offset="0" stop-color="#42210b" stop-opacity="0"></stop><stop offset="1" stop-color="#1b1464"></stop></linearGradient><linearGradient id="linear-gradient-2" x1="222.61" y1="216.27" x2="297.64" y2="141.24" xlink:href="#linear-gradient"></linearGradient><linearGradient id="linear-gradient-3" x1="180.14" y1="121.46" x2="172.54" y2="128.88" gradientUnits="userSpaceOnUse"><stop offset="0" stop-color="#d4a397"></stop><stop offset="1" stop-color="#fff"></stop></linearGradient><linearGradient id="linear-gradient-4" x1="219.83" y1="126.21" x2="227.29" y2="119.19" gradientUnits="userSpaceOnUse"><stop offset="0" stop-opacity="0"></stop><stop offset="0.99" stop-color="#552800"></stop></linearGradient><linearGradient id="linear-gradient-5" x1="52.61" y1="188.35" x2="61.86" y2="175.42" gradientTransform="matrix(-1, 0, 0, 1, 116.38, 0)" gradientUnits="userSpaceOnUse"><stop offset="0" stop-color="#aa4200" stop-opacity="0"></stop><stop offset="0.98" stop-color="#aa003d"></stop></linearGradient><linearGradient id="linear-gradient-6" x1="323.66" y1="202.42" x2="367.67" y2="158.41" xlink:href="#linear-gradient"></linearGradient></defs><title>PP</title><g style="isolation: isolate;"><g id="Layer_2" data-name="Layer 2"><path d="M194.28,287.7,14.56,181.48C8.84,178.27,3.93,173,9.51,169.53l180.37-104c2.71-1.68,6.82-2.78,9.57-1.18L388.11,173.89c5.72,3.32,6.75,12.6,1,15.93L218,287.53A23.9,23.9,0,0,1,194.28,287.7Z" fill="#2f4093"></path><polyline points="226.64 227.31 185.8 250.98 97.41 192.69 131.44 175.77 153.15 174.99 186.59 185.1" fill="url(#linear-gradient)"></polyline><polyline points="151.81 139.63 151.81 178.81 148.91 178.81 148.28 138.62" fill="#895851"></polyline><polyline points="142.47 158.66 142.47 197.84 139.57 197.84 138.94 157.65" fill="#895851"></polyline><polyline points="125.97 143.59 120.16 186.19 123.06 186.19 129.13 145.17" fill="#895851"></polyline><path d="M124.39,103.1c.77,2.16,5.12,34.82,5.12,34.82l4.37-1.46-5.69-33.54" fill="#895851"></path><polyline points="125.97 143.59 125.89 138.33 130.55 139.92 129.13 145.17" fill="#a9cbf8"></polyline><path d="M136.51,135.44s-11.71,4.49-10.54,8.91,10.52,15.24,16.5,14.31,17.27-7.73,17.27-7.73" fill="#a9cbf8"></path><path d="M136.51,130.06S124.8,134.55,126,139s10.52,15.24,16.5,14.31,13.29-6.14,13.29-6.14" fill="#cbe3ff"></path><path d="M131.87,89s-11.31,2.82-12.46,9.32-1.48,18.5,14.58,13.84,8.48-16.71,8.48-16.71" fill="#cbe3ff"></path><path d="M172.91,169.72c0,.48,0,.83,0,1-.12,3.11,3.35,19.09,3.35,19.09,4,3,7.56-.46,7.56-.46a83.73,83.73,0,0,1-1.29-16.52C178.83,173.12,176.62,169.78,172.91,169.72Z" fill="#ffc6b2"></path><path d="M194.24,198.67s.44,3.26-2.5,4.06-6.73-.79-8.44-1.45-8.08-5.4-8.08-5.4l.28-7.17" fill="#fff"></path><path d="M183.57,187.74s2,4.3,5.35,5.77,6,4.52,5.32,5.16-2.35-1.41-3.15-.76-.63,3.24-1.69,2.65-3.09,1.21-6.18-.63-2.19-2.73-4.75-3.53-3-7.69-3-7.69S181.9,189.73,183.57,187.74Z" fill="#68e1fd"></path><path d="M184.32,181.47c0-.44-.1-.87-.15-1.31-.89-9-.6-18-1.27-27.05-.4-5.38-.9-10.91-2.87-16-3.51-9-10.49-10.47-18.92-12.48l-3.36-10.71-14.84,7.28,6.76,26.58L164,149.06s6.33,25.34,8.37,34.22C177.28,185.09,180.12,184.43,184.32,181.47Z" fill="#dd4c1f"></path><path d="M163.55,166.32c.18,9,2.49,27.28,2.49,27.28,3.56,2.67,7.41-.38,7.41-.38s-.21-16.7.11-27.13C170.22,166.33,166.89,166.26,163.55,166.32Z" fill="#ffc6b2"></path><path d="M180.06,203.76a3.88,3.88,0,0,1-.38,4.35c-1.73,2.18-4.31,1.38-6.49.54s-8.57-5.63-7.88-7.1.53-7.3.53-7.3" fill="#fff"></path><path d="M173.13,191.33s1.42,5.41,2.92,7.07,5.1,5.75,4.14,7-2-2.11-3.64-1-.89,3.49-2.17,3.11-7.48-4.51-8.37-7.4.13-8.17.13-8.17" fill="#68e1fd"></path><path d="M175.51,188.07c0-.44,0-2.8,0-3.24,0-9,2-18.16,2.15-27.19.1-5.39,2.16-13.36.3-18.47-2.44-6.71-9.44-7.83-17.65-10.62l-3.08-10.66L144.12,123l4.24,27.1,14.2,2.58s-1.2,26.77,0,35.8C167.25,190.7,171.05,190.63,175.51,188.07Z" fill="#f15a24"></path><path d="M168.52,124.5l-7.45-2.63s-2.24-14.51-3.33-19.86c-1.69-8.36.3-11.74.3-11.74s-3.93-7.76-.77-8.34S165,94,165.56,100.43,168.52,124.5,168.52,124.5Z" fill="#ffc6b2"></path><path d="M158.54,80.18s7.53,3.61,8.25,20.14c0,0-7.9,1.54-11.32.7" fill="#68e1fd"></path><path d="M138.65,146.09c2.4,2.32,5.9,3.53,9.71,4l4.79-31.45L135,120.48s-.14.18-.38.54C133.69,129.26,132.15,139.79,138.65,146.09Z" fill="#f15a24"></path><path d="M143.18,70.61c0,.08-18.51,16.74-12.94,22.72s12.94-2.16,12.94-2.16l2.33-19" fill="#f18f22"></path><path d="M139.94,82.27c2.75-3,8.09-3.24,13.82-3.08a12,12,0,0,1,4.78,1c3.37,4.89,2.63,11.57,2.11,17.18-.58,6.31.42,21.52,0,25.72-8.43,4.35-23.51,3.56-26.58,3,.57-5.39.79-10.88,1-16.22C135,109.91,135,87.62,139.94,82.27Z" fill="#68e1fd"></path><path d="M147.11,75.18l-.49,5s3.42,2.12,6.43.68l.41-3.14" fill="#ffb39c"></path><path d="M154.51,73.72c7.82.91,7.21-5.41,7.21-5.41,1.25-13.2-12.87-10.68-12.87-10.68s-10.65,2.49-4.06,15.7" fill="#f18f22"></path><path d="M160.31,63.61S159.73,79.9,153,79.14s-6.33-6.33-6.33-6.33-1-10.16,4.6-12.08S160.31,63.61,160.31,63.61Z" fill="#ffc6b2"></path><path d="M160.31,63.61s-3.89,5.81-8.72,5.38-4.48,6.19-4.48,6.19-4.65-2.11-4.56-8.41c0-3.57,5-9.46,9.68-9.18S161.38,60.31,160.31,63.61Z" fill="#f18f22"></path><polyline points="290.79 190.28 220.6 230.76 192.32 204.38 235.64 180.94 257.19 168.98 290.79 190.28" fill="url(#linear-gradient-2)"></polyline><polyline points="268.48 162.75 268.48 201.93 271.38 201.93 272 161.74" fill="#895851"></polyline><polyline points="284.98 147.68 290.79 190.28 287.88 190.28 281.81 149.26" fill="#895851"></polyline><path d="M286.56,107.19c-.77,2.16-5.12,34.82-5.12,34.82l-4.37-1.46L282.76,107" fill="#895851"></path><polyline points="284.98 147.68 285.06 142.42 280.4 144.02 281.81 149.26" fill="#a9cbf8"></polyline><path d="M274.44,139.53S286.15,144,285,148.45s-10.52,15.24-16.5,14.31-13.29-6.14-13.29-6.14" fill="#a9cbf8"></path><path d="M274.44,134.16s11.71,4.49,10.54,8.91-10.52,15.24-16.5,14.31-13.29-6.14-13.29-6.14" fill="#cbe3ff"></path><path d="M279.08,93.13s11.31,2.82,12.46,9.32S293,121,277,116.3s-8.48-16.71-8.48-16.71" fill="#cbe3ff"></path><path d="M279.38,89.16c.3.3,6.2,1.95,6,6.66s-1,27.59-3.25,28.5-8,3.51-8,3.51" fill="#350011"></path><path d="M226.36,177.47s-2.71,8.86-3.31,9.76-9.47,6.76-9.32,8.56,3.5,2.55,5.58,2.4,14.11-5.16,14.86-6.63.75-14.09.75-14.09Z" fill="#9e410d"></path><path d="M240.62,187.84s-2.71,8.86-3.31,9.76-9.47,6.76-9.32,8.56,3.5,2.55,5.58,2.4,14.11-5.16,14.86-6.63.75-14.09.75-14.09Z" fill="#9e410d"></path><path d="M251.69,119s-23.15,15.87-26.14,24-4.95,39.93-4.95,39.93,8.1,5,17.52,2.07l7.09-36.09s16.83-7.19,19.79-16.17S264,107,264,107" fill="#68e1fd"></path><path d="M264.66,128.33s-23.15,15.87-26.14,24-4.95,39.93-4.95,39.93,8.1,5,17.52,2.07l7.09-36.09S275,151,278,142s-1-25.74-1-25.74" fill="#68e1fd"></path><path d="M273.86,128.67c4-9.6,7.52-37.45,5.13-40.51-2.8-3.59-18.71-9.46-18.71-9.46a11.83,11.83,0,0,0-10.85,2.48c-3.87,3.27-1.14,28.72,0,41.48C256.18,128.89,264.15,130.42,273.86,128.67Z" fill="#f15a24"></path><path d="M253,79.08s-17.75,7.45-20.53,20.37c-3.85,17.9,19.31-.86,19.31-.86" fill="#f15a24"></path><path d="M250,83.38s-2.14,6.77,4.77,7.47,5.94-6.58,5.94-6.58" fill="#e4f1ff"></path><ellipse cx="255.31" cy="83.83" rx="3.09" ry="5.37" transform="translate(150.69 331.35) rotate(-85.26)" fill="#350011"></ellipse><path d="M258.19,92.23s.51,4.07-1.86,4.81a19.45,19.45,0,0,0-5.23,3.17l-2.15,17.26-1.26-16.42,1.51-7.31Z" fill="#350011"></path><path d="M240.66,92.23s6.86-9.53,7.89-8.85c2.27,1.49-.11,5.16-.11,5.16s9.51.19,9.75,3.69S246,94.33,246,94.33l-3.27,2.34" fill="#ffd8c6"></path><path d="M241.75,88c-1.43-.33-22.44,15.83-13.67,21.95,8.58,6,23-12.91,23-12.91S247.86,89.45,241.75,88Z" fill="#f15a24"></path><path d="M257.27,131.54c-4.17,4.16-8.63,8.16-12.51,12.59-3.37,3.85-4.69,8.73-6,13.57-3,11.27-4.4,22.9-5.75,34.47-.08.7,1,.69,1.1,0,1.3-11.13,2.61-22.31,5.45-33.17,1.39-5.33,2.78-10.63,6.6-14.77s7.93-8,11.89-11.91A.55.55,0,0,0,257.27,131.54Z" fill="#5c2d1d"></path><path d="M248.44,130.25s-11.23,2.7-10.86,3.71,4.06,0,4.06,0-7.53,3.15-6,6.26c1,2,8.15.64,10.09,0s7.23-5.8,7.23-5.8Z" fill="#ffd8c6"></path><path d="M268.47,99.59s-2.41,17.47-4.25,19.83-20.87,10.74-20.87,10.74,6.21,2.79,6.07,9.38c0,0,24-6,26.33-11.48s9.35-33.17,3.23-39.9S268.47,99.59,268.47,99.59Z" fill="#f15a24"></path><path d="M268.35,77.36v6.47s-4.4,2.31-7-.74Z" fill="#edbba2"></path><path d="M275.39,66.41c-.8-3.54-3.62-4.78-6.8-4.84A6.83,6.83,0,0,0,266.52,60c-2.42-1.15-5.75-1-7.79.79a5,5,0,0,0-2.51-.2c-2.5.47-3.3,2.86-3.22,5.1,0,.09,0,.18,0,.27-.57,3.84,2.78,6.21,2.78,6.21l10.61,8.46a8.83,8.83,0,0,0,3.79-2.29A4.68,4.68,0,0,0,271,76.9a1.84,1.84,0,0,0,.28-.19C274.27,74.28,276.27,70.29,275.39,66.41Z" fill="#350011"></path><path d="M256.16,69.11c0,1.33-.42,13.82,5.23,14s7.71-7.78,7.71-7.78-4.63-2.38-4.63-4.31.37-2.7-1.93-3.7S256.11,66.9,256.16,69.11Z" fill="#ffe0ce"></path><path d="M267.67,104.9s-1-12.91,7.93-19.33c0,0-.09-2.49-5.27-3.34-2.57-.42-5,6.78-5.45,9.31a43.47,43.47,0,0,0-.62,11.35c.18,1.93.66,4.79,2.79,5.59Z" fill="#350011"></path><path d="M267.25,103.29a71.47,71.47,0,0,1-1.84,9.73c-.81,3-1.37,6.7-4.38,8.26-5.64,2.93-11.82,5.11-17.66,7.62-.65.28-.09,1.23.55.95l11-4.74c2.64-1.14,6.61-2,8.63-4.2,1.76-1.89,2.3-5.23,2.93-7.61a73.87,73.87,0,0,0,1.88-10C268.44,102.59,267.33,102.6,267.25,103.29Z" fill="#350011"></path><ellipse cx="207.46" cy="217.48" rx="24.7" ry="14.65" fill="#e0831e"></ellipse><polyline points="182.76 214.41 182.76 217.7 232.15 217.7 232.15 215.01" fill="#e0831e"></polyline><ellipse cx="207.46" cy="214.8" rx="24.7" ry="14.65" fill="#ffae45"></ellipse><rect x="204.06" y="152.52" width="6.79" height="60.44" rx="2.59" ry="2.59" fill="#946c62"></rect><ellipse cx="207.46" cy="127.95" rx="46.01" ry="27.29" fill="#e0831e"></ellipse><polyline points="161.45 122.22 161.45 128.36 253.47 128.36 253.47 123.35" fill="#e0831e"></polyline><ellipse cx="207.46" cy="122.95" rx="46.01" ry="27.29" fill="#ffae45"></ellipse><ellipse cx="184.43" cy="121.87" rx="17.69" ry="9.79" fill="#68e1fd"></ellipse><ellipse cx="184.43" cy="121.87" rx="17.69" ry="9.79" fill="#093e3e" opacity="0.29"></ellipse><ellipse cx="184.43" cy="120.8" rx="17.69" ry="9.79" fill="#68e1fd"></ellipse><ellipse cx="184.86" cy="120.8" rx="10.58" ry="5.67" fill="#093e3e" opacity="0.29"></ellipse><path d="M168.44,128.39c.69.29,2.67,1.88,3.34,2.2,1,.42,3.71,2.95,4.67,3.36,4.37-2.64,9.74-7.93,14.22-10.39-3.38-1.63-9.86-4.6-11.4-5.95-5.28,2.15-10.44,5-15.56,7.49A28.21,28.21,0,0,0,168.44,128.39Z" fill="url(#linear-gradient-3)" style="mix-blend-mode: multiply;"></path><path d="M192.69,119.71l-1.44-6.38H177.61l-1.1,6.22c0,.05,0,.11,0,.16h0a2.31,2.31,0,0,0,0,.33c0,2.37,2.51,5.07,8.12,5.07s8.12-2.7,8.12-5.07a2.31,2.31,0,0,0,0-.33Z" fill="#ffebcc"></path><path d="M192.69,119.71l-1.44-6.38-3-.39c.39,3.76.88,8.43.12,11.65,2.92-.9,4.33-2.81,4.33-4.55a2.31,2.31,0,0,0,0-.33Z" fill="#ffdaa9"></path><ellipse cx="184.43" cy="113.33" rx="6.82" ry="4.29" fill="#933d0c"></ellipse><ellipse cx="184.43" cy="112.27" rx="6.82" ry="4.29" fill="#ad541a"></ellipse><path d="M185.94,108.78a.15.15,0,0,0,0,.3A.15.15,0,0,0,185.94,108.78Z" fill="#fff"></path><path d="M186.31,110.12a4.25,4.25,0,0,1-.78-2.48l.45.35-.32-1.13.52.43-.18-1.16.61.36.09-1.37.36.57a16,16,0,0,1,.53-1.64,5,5,0,0,1,.56,1.3l.44-.41-.12.89.44-.43-.29,1.42.5-.36-.33,1.1.57-.09-.52,1,.72-.08a8.35,8.35,0,0,1-2.18,2.07C186.4,110.9,186.31,110.12,186.31,110.12Z" fill="#67ba31"></path><path d="M186.6,109.89a4.25,4.25,0,0,1,.67-2.51l.19.54.33-1.13.21.64.47-1.07.32.63.8-1.11v.68a16,16,0,0,1,1.33-1.1,5,5,0,0,1-.23,1.39l.58-.11-.58.69.6-.12-1,1,.62,0-.87.75.53.23-1,.55.65.32a8.35,8.35,0,0,1-2.95.58C186.25,110.6,186.6,109.89,186.6,109.89Z" fill="#4b9e15"></path><path d="M187.29,107.74l-.47.39a.13.13,0,0,0,0,.21c0,.11.15.21.25.1l.42-.49A.15.15,0,0,0,187.29,107.74Z" fill="#993737"></path><path d="M187.34,109.3c-.18-1.33-1.55-2.65-2.77-1.61-.68.58-1.89,2.11-1.38,3.09s2.13.62,2.84.32a2.15,2.15,0,0,0,1.25-1.15A1.32,1.32,0,0,0,187.34,109.3Z" fill="#fc4d4c"></path><path d="M187.28,110a1.32,1.32,0,0,0,.07-.66,2.59,2.59,0,0,0-.32-.93,4.19,4.19,0,0,1-2.11,2.74,4,4,0,0,1-.61.27,4.16,4.16,0,0,0,1.72-.27A2.15,2.15,0,0,0,187.28,110Z" fill="#d82e2e"></path><path d="M185.78,107.7a1,1,0,0,0-1,.46.15.15,0,0,0,.26.16.67.67,0,0,1,.68-.33C185.89,108,186,107.73,185.78,107.7Z" fill="#fff"></path><path d="M184.21,109.82a.15.15,0,0,0-.16.26A.15.15,0,0,0,184.21,109.82Z" fill="#993737"></path><path d="M184.14,109.07a.15.15,0,0,0-.16.26A.15.15,0,0,0,184.14,109.07Z" fill="#993737"></path><path d="M185.29,109.14a.15.15,0,0,0-.16.26A.15.15,0,0,0,185.29,109.14Z" fill="#993737"></path><path d="M184.94,110.16a.15.15,0,0,0-.16.26A.15.15,0,0,0,184.94,110.16Z" fill="#993737"></path><path d="M185.48,108.44a.15.15,0,0,0-.16.26A.15.15,0,0,0,185.48,108.44Z" fill="#993737"></path><path d="M186.32,108.71a.15.15,0,0,0-.16.26A.15.15,0,0,0,186.32,108.71Z" fill="#993737"></path><path d="M184.24,110.75a.15.15,0,0,0-.16.26A.15.15,0,0,0,184.24,110.75Z" fill="#993737"></path><path d="M185.91,109.57a.15.15,0,0,0-.16.26A.15.15,0,0,0,185.91,109.57Z" fill="#993737"></path><path d="M183.42,110a.15.15,0,0,0-.16.26A.15.15,0,0,0,183.42,110Z" fill="#993737"></path><path d="M189.65,109.06l-.28.54a.13.13,0,0,0,.09.19.14.14,0,0,0,.27,0l.2-.61A.15.15,0,0,0,189.65,109.06Z" fill="#993737"></path><path d="M190.31,110.47c-.68-1.16-2.45-1.85-3.18-.41-.41.8-.92,2.68-.08,3.39s2.2-.25,2.75-.8a2.15,2.15,0,0,0,.71-1.54A1.32,1.32,0,0,0,190.31,110.47Z" fill="#fc4d4c"></path><path d="M190.5,111.11a1.32,1.32,0,0,0-.2-.63,2.59,2.59,0,0,0-.66-.73,4.19,4.19,0,0,1-.89,3.34,4,4,0,0,1-.45.48,4.16,4.16,0,0,0,1.48-.91A2.15,2.15,0,0,0,190.5,111.11Z" fill="#d82e2e"></path><path d="M188.25,109.61a1,1,0,0,0-.76.82.15.15,0,0,0,.3,0,.67.67,0,0,1,.5-.56C188.47,109.86,188.44,109.56,188.25,109.61Z" fill="#fff"></path><path d="M187.62,112.17a.15.15,0,0,0,0,.3A.15.15,0,0,0,187.62,112.17Z" fill="#993737"></path><path d="M187.26,111.5a.15.15,0,0,0,0,.3A.15.15,0,0,0,187.26,111.5Z" fill="#993737"></path><path d="M188.36,111.12a.15.15,0,0,0,0,.3A.15.15,0,0,0,188.36,111.12Z" fill="#993737"></path><path d="M188.43,112.2a.15.15,0,0,0,0,.3A.15.15,0,0,0,188.43,112.2Z" fill="#993737"></path><path d="M188.26,110.4a.15.15,0,0,0,0,.3A.15.15,0,0,0,188.26,110.4Z" fill="#993737"></path><path d="M189.14,110.33a.15.15,0,0,0,0,.3A.15.15,0,0,0,189.14,110.33Z" fill="#993737"></path><path d="M188,113a.15.15,0,0,0,0,.3A.15.15,0,0,0,188,113Z" fill="#993737"></path><path d="M189.09,111.28a.15.15,0,0,0,0,.3A.15.15,0,0,0,189.09,111.28Z" fill="#993737"></path><path d="M187,112.64a.15.15,0,0,0,0,.3A.15.15,0,0,0,187,112.64Z" fill="#993737"></path><path d="M176.56,119.26l-.11.79s-.34,5.07,8.12,5.07c8.14,0,8.14-5.29,8.14-5.29l-.18-.81s-.49,5.74-7.94,5.44C176.79,124.15,176.56,119.26,176.56,119.26Z" fill="#f7ae4f"></path><path d="M178.53,110.09l5.7,13.47s.14.08.17.1l.63.34a4.45,4.45,0,0,1,2.06,2.88c.21.74.46,2-.26,2.53s-1.76,0-2.3-.53a4.41,4.41,0,0,1-1.34-3.7,2.13,2.13,0,0,0,0-1.17c-.2-.5-2.53-5.89-2.53-5.89l-3.31-7.44s-.36-.94.06-1.3S178.53,110.09,178.53,110.09Z" fill="#ad541a"></path><path d="M217.67,126.52c.81.25,1.62.49,2.46.66a12.58,12.58,0,0,0,1.54.18l5.33,4.86,7.42-7.93-10.48-3.48L210,122.69A44.61,44.61,0,0,0,217.67,126.52Z" opacity="0.32" fill="url(#linear-gradient-4)"></path><path d="M222.34,122.17s.47,3.36,6.9,3.36c7.81,0,7.58-4.61,7.58-4.61" fill="#68e1fd"></path><path d="M222.34,122.17s.47,3.36,6.9,3.36c7.81,0,7.58-4.61,7.58-4.61" fill="#093e3e" opacity="0.68"></path><path d="M215.14,110s.75,14.42,14.74,14.12C242.81,123.8,243.5,110,243.5,110Z" fill="#68e1fd"></path><path d="M228.67,122.93a13.86,13.86,0,0,1-3.85-3.77,16.89,16.89,0,0,1-3-9.18h-6.67s.75,14.42,14.74,14.12c.47,0,.93,0,1.37-.09A9.08,9.08,0,0,1,228.67,122.93Z" fill="#093e3e" opacity="0.29"></path><ellipse cx="229.32" cy="110.06" rx="14.18" ry="8.34" fill="#ffa87d" stroke="#ddd" stroke-miterlimit="10"></ellipse><path d="M229.32,105.31c6.52,0,12,2.64,13.17,6.13a4.48,4.48,0,0,0,.25-1.48c0-4.2-6-7.6-13.43-7.6s-13.43,3.4-13.43,7.6a4.48,4.48,0,0,0,.25,1.48C217.36,107.94,222.79,105.31,229.32,105.31Z" fill="#68e1fd"></path><path d="M233.68,117.15q-.74.14-1.51.24A1.68,1.68,0,0,0,233.68,117.15Z" fill="none"></path><path d="M238.27,115.63l-.48.23a.78.78,0,0,0,.23-.06A.72.72,0,0,0,238.27,115.63Z" fill="none"></path><path d="M220,113.76c1.08,0,1.85.81,2.87,1,1.17.17,1.56-1.31,2.07-2.08a2.43,2.43,0,0,1,2-1.3c.94,0,2.5,1.54,3.3.88.36-.29.43-.94.64-1.34a2.5,2.5,0,0,1,.75-.85,2.9,2.9,0,0,1,2.73-.2c.51.17,1.24.49,1.77.2s.46-1.11.63-1.59a2.75,2.75,0,0,1,1.08-1.39q-.53-.24-1.1-.46a2.27,2.27,0,0,1-.57.74c-.93.79-2.07.39-3.07,0-.63-.26-1.47-.59-2,0a5.47,5.47,0,0,0-.58,1,2,2,0,0,1-1.71,1.26c-.92,0-1.57-.79-2.43-.86-1.17-.1-1.47,1.69-2.16,2.36a2.45,2.45,0,0,1-2.39.53,3.37,3.37,0,0,1-1.07-.68,1,1,0,0,0-1.74.43c-.31.89-.46,1.65-1.37,2.12l-.15.07a8.75,8.75,0,0,0,1,.93A2.08,2.08,0,0,1,220,113.76Z" fill="#fed337"></path><path d="M217.69,112.14c.32-.48.29-1.14.6-1.64a2,2,0,0,1,2.4-.78c.53.21.85.74,1.38.92a1.48,1.48,0,0,0,1.77-.73c.56-.88.92-2,2.12-2.19a2.3,2.3,0,0,1,1.16.2c.49.2,1.1.7,1.66.66.88-.07,1.11-1.51,1.66-2.06.84-.83,2-.57,2.94-.17.66.27,1.57.75,2.2.12a1.27,1.27,0,0,0,.17-.23,21.37,21.37,0,0,0-5.23-.9,2.92,2.92,0,0,1-1.64,1.3,2.87,2.87,0,0,1-1.66,0c-.62-.2-1.24-.94-1.92-.8s-1.22,1.11-1.74,1.61a3.54,3.54,0,0,1-1.39.84,3.69,3.69,0,0,1-3-.33,7.23,7.23,0,0,0-3,3.51,5.39,5.39,0,0,0,.66,1.28A1.4,1.4,0,0,0,217.69,112.14Z" fill="#fed337"></path><path d="M229.22,105.31c-.76,0-1.5,0-2.23.11a3.76,3.76,0,0,0,.49.22A1.62,1.62,0,0,0,229.22,105.31Z" fill="#fed337"></path><path d="M235.54,116.7l.47-.15-.17,0A1.33,1.33,0,0,0,235.54,116.7Z" fill="#fed337"></path><path d="M222.5,107a4.61,4.61,0,0,0,.94-.93,16.45,16.45,0,0,0-3.19,1.23A2.61,2.61,0,0,0,222.5,107Z" fill="#fed337"></path><path d="M226.55,114.57a2.52,2.52,0,0,1,2.51-.52c.93.34,2.36,2,3.13.64.47-.82.58-1.69,1.59-2s1.81.4,2.84.6c1.35.25,1.73-1.49,2.45-2.29a3.71,3.71,0,0,1,2.44-1.23,9.44,9.44,0,0,0-2.61-2.14,1.72,1.72,0,0,0-.54.25,2.35,2.35,0,0,0-.86,1.64,1.89,1.89,0,0,1-2,1.63c-1.27,0-2.83-1.29-3.76.17-.54.85-.57,2-1.81,2.09a2.85,2.85,0,0,1-1.58-.39c-.64-.33-1.33-.91-2.06-.47-1,.58-1.13,2.06-2,2.77a2.37,2.37,0,0,1-2.59.1,4.67,4.67,0,0,0-1.55-.62,1.14,1.14,0,0,0-.83.29,16.17,16.17,0,0,0,5.07,2C225.31,116.59,225.77,115.2,226.55,114.57Z" fill="#fed337"></path><path d="M240.23,111.23c-.88.65-1.12,1.79-1.91,2.51a2.1,2.1,0,0,1-2.19.4,7.31,7.31,0,0,0-1.51-.58c-.74-.08-1.05.42-1.3,1-.32.75-.66,1.48-1.55,1.64a3.53,3.53,0,0,1-2.44-.89c-1.89-1.19-2.6.73-3.71,2a22.72,22.72,0,0,0,2.35.25,3.44,3.44,0,0,1,2.91-.51c.42.11.86.28,1.3.38q.77-.09,1.51-.24l.16-.15c.56-.57.9-1.16,1.73-1.38a2.51,2.51,0,0,1,1.1,0,4.4,4.4,0,0,0,1.11.27l.48-.23a8.67,8.67,0,0,0,.53-.91,3.39,3.39,0,0,1,.66-.69,3.61,3.61,0,0,1,2-.77,5.73,5.73,0,0,0,1.08-1.83,5.12,5.12,0,0,0-.33-.74A2.8,2.8,0,0,0,240.23,111.23Z" fill="#fed337"></path><path d="M219,111.35a1,1,0,0,1,1.74-.43,3.37,3.37,0,0,0,1.07.68,2.45,2.45,0,0,0,2.39-.53c.7-.67,1-2.46,2.16-2.36.86.07,1.51.87,2.43.86a2,2,0,0,0,1.71-1.26,5.47,5.47,0,0,1,.58-1c.54-.61,1.37-.29,2,0,1,.41,2.14.81,3.07,0a2.27,2.27,0,0,0,.57-.74q-.46-.17-.95-.32a1.27,1.27,0,0,1-.17.23c-.62.62-1.53.14-2.2-.12-1-.39-2.11-.66-2.94.17-.55.55-.78,2-1.66,2.06-.55,0-1.17-.46-1.66-.66a2.3,2.3,0,0,0-1.16-.2c-1.2.15-1.56,1.31-2.12,2.19a1.48,1.48,0,0,1-1.77.73c-.53-.19-.86-.71-1.38-.92a2,2,0,0,0-2.4.78c-.31.5-.28,1.16-.6,1.64a1.4,1.4,0,0,1-.88.58,6.88,6.88,0,0,0,.67.82l.15-.07C218.54,113,218.68,112.24,219,111.35Z" fill="#f4b322"></path><path d="M221.71,115.37a2.37,2.37,0,0,0,2.59-.1c.89-.71,1.05-2.19,2-2.77.73-.44,1.41.14,2.06.47a2.85,2.85,0,0,0,1.58.39c1.24-.13,1.27-1.23,1.81-2.09.93-1.46,2.48-.2,3.76-.17a1.89,1.89,0,0,0,2-1.63,2.35,2.35,0,0,1,.86-1.64,1.72,1.72,0,0,1,.54-.25q-.52-.3-1.09-.56a2.75,2.75,0,0,0-1.08,1.39c-.17.48-.12,1.3-.63,1.59s-1.26,0-1.77-.2a2.9,2.9,0,0,0-2.73.2,2.5,2.5,0,0,0-.75.85c-.21.4-.29,1-.64,1.34-.8.66-2.36-.86-3.3-.88a2.43,2.43,0,0,0-2,1.3c-.5.77-.9,2.25-2.07,2.08-1-.15-1.79-1-2.87-1a2.08,2.08,0,0,0-1.45.71q.39.3.83.57a1.14,1.14,0,0,1,.83-.29A4.67,4.67,0,0,1,221.71,115.37Z" fill="#f4b322"></path><path d="M239.06,111c-.72.8-1.1,2.55-2.45,2.29-1-.19-1.72-1-2.84-.6s-1.12,1.22-1.59,2c-.78,1.35-2.2-.3-3.13-.64a2.52,2.52,0,0,0-2.51.52c-.78.64-1.24,2-2.15,2.47q.59.13,1.21.23c1.11-1.22,1.82-3.15,3.71-2a3.53,3.53,0,0,0,2.44.89c.89-.16,1.23-.89,1.55-1.64.25-.6.57-1.11,1.3-1a7.31,7.31,0,0,1,1.51.58,2.1,2.1,0,0,0,2.19-.4c.8-.72,1-1.86,1.91-2.51a2.8,2.8,0,0,1,1.93-.53,6.13,6.13,0,0,0-.66-1A3.71,3.71,0,0,0,239.06,111Z" fill="#f4b322"></path><path d="M222.17,108.26a3.54,3.54,0,0,0,1.39-.84c.52-.51,1-1.46,1.74-1.61s1.31.6,1.92.8a2.87,2.87,0,0,0,1.66,0,2.92,2.92,0,0,0,1.64-1.3q-.6,0-1.21,0h-.1a1.62,1.62,0,0,1-1.73.33,3.76,3.76,0,0,1-.49-.22,21.2,21.2,0,0,0-3.56.65,4.61,4.61,0,0,1-.94.93,2.61,2.61,0,0,1-2.25.3q-.56.29-1.07.62A3.69,3.69,0,0,0,222.17,108.26Z" fill="#f4b322"></path><path d="M238.8,114.72a8.67,8.67,0,0,1-.53.91,10.12,10.12,0,0,0,3.15-2.37,3.61,3.61,0,0,0-2,.77A3.39,3.39,0,0,0,238.8,114.72Z" fill="#f4b322"></path><path d="M232.17,117.39c-.43-.1-.87-.27-1.3-.38a3.44,3.44,0,0,0-2.91.51c.44,0,.89,0,1.35,0A23.46,23.46,0,0,0,232.17,117.39Z" fill="#f4b322"></path><path d="M236.68,115.6a2.51,2.51,0,0,0-1.1,0c-.83.22-1.17.81-1.73,1.38l-.16.15c.64-.12,1.26-.28,1.86-.45a1.33,1.33,0,0,1,.3-.12l.17,0a16.38,16.38,0,0,0,1.78-.7A4.4,4.4,0,0,1,236.68,115.6Z" fill="#f4b322"></path><path d="M225.6,106.71c0-1,.88-1.3,1.16-2.11.34-1-1.07-1.61-1.34-2.47a2.08,2.08,0,0,1,0-1.22,1.6,1.6,0,0,0-.49,1.6c.26.69,1.57,1.14.84,2-.41.49-.93.85-.9,1.57a1.67,1.67,0,0,0,1,1.45l0,0A1.38,1.38,0,0,1,225.6,106.71Z" fill="#fff"></path><ellipse cx="222.34" cy="110.45" rx="4.54" ry="2.62" fill="#ccbdb8"></ellipse><ellipse cx="222.34" cy="109.68" rx="4.54" ry="2.62" fill="#f0f0f0"></ellipse><ellipse cx="222.94" cy="109.94" rx="3.14" ry="1.56" fill="#f4b322"></ellipse><ellipse cx="223.97" cy="109.67" rx="1.03" ry="0.6" fill="#fff2d4"></ellipse><ellipse cx="223.97" cy="113.47" rx="4.54" ry="2.62" fill="#ccbdb8"></ellipse><ellipse cx="223.97" cy="112.69" rx="4.54" ry="2.62" fill="#f0f0f0"></ellipse><ellipse cx="224.57" cy="112.96" rx="3.14" ry="1.56" fill="#f4b322"></ellipse><ellipse cx="225.6" cy="112.69" rx="1.03" ry="0.6" fill="#fff2d4"></ellipse><path d="M237.28,109.88l-.15-.42a1.87,1.87,0,0,1,1.45.62l0,.36S237.67,109.73,237.28,109.88Z" fill="#55823d"></path><path d="M233.68,115.86a.76.76,0,0,1,.79-.94c1,0,.85.79.85.79l.21-.85a1.27,1.27,0,0,0-1.35-.5,1.29,1.29,0,0,0-.91,1.19Z" fill="#55823d"></path><path d="M233.68,115.86a1.17,1.17,0,0,0,1.64-.15s0,.83-.79.86-1.26-1-1.26-1" fill="#55823d"></path><path d="M233.56,109.3a.85.85,0,0,1,.35,1.43l.76.43a1.93,1.93,0,0,0-.25-1.69C233.83,108.87,233.56,109.3,233.56,109.3Z" fill="#55823d"></path><path d="M238.69,114a.85.85,0,0,1-.49-1.39l-.8-.35a1.93,1.93,0,0,0,.42,1.66C238.46,114.5,238.69,114,238.69,114Z" fill="#55823d"></path><path d="M228.33,115.09a.85.85,0,0,1,.92,1.15l.87.07s-.16-1.13-.94-1.43S228.33,115.09,228.33,115.09Z" fill="#55823d"></path><path d="M227.3,107.84a.85.85,0,0,1-.49-1.39l-.8-.35a1.93,1.93,0,0,0,.42,1.66C227.07,108.29,227.3,107.84,227.3,107.84Z" fill="#55823d"></path><path d="M236,107.47a.85.85,0,0,1-1.42-.4l-.74.45s.79.83,1.6.61S236,107.47,236,107.47Z" fill="#55823d"></path><path d="M236.74,111.15a.27.27,0,0,0,0,.55A.27.27,0,0,0,236.74,111.15Z" fill="#b25636"></path><path d="M235.49,108.77a.27.27,0,0,0,0,.55A.27.27,0,0,0,235.49,108.77Z" fill="#b25636"></path><path d="M231.8,113.58a.27.27,0,0,0,0,.55A.27.27,0,0,0,231.8,113.58Z" fill="#b25636"></path><path d="M228.11,109.15a.27.27,0,0,0,0,.55A.27.27,0,0,0,228.11,109.15Z" fill="#b25636"></path><path d="M239.49,111.34a.27.27,0,0,0,0,.55A.27.27,0,0,0,239.49,111.34Z" fill="#b25636"></path><path d="M227.8,116.65a.27.27,0,0,0,0,.55A.27.27,0,0,0,227.8,116.65Z" fill="#b25636"></path><path d="M231.68,116.71a.27.27,0,0,0,0,.55A.27.27,0,0,0,231.68,116.71Z" fill="#b25636"></path><path d="M233.36,106.52a.27.27,0,0,0,0,.55A.27.27,0,0,0,233.36,106.52Z" fill="#b25636"></path><path d="M238.74,108.84a.27.27,0,0,0,0,.55A.27.27,0,0,0,238.74,108.84Z" fill="#b25636"></path><path d="M239.8,112.4a.27.27,0,0,0,0,.55A.27.27,0,0,0,239.8,112.4Z" fill="#b25636"></path><path d="M219,115.16a.23.23,0,0,0,0,.45A.23.23,0,0,0,219,115.16Z" fill="#b25636"></path><path d="M224.37,106.4a.27.27,0,0,0,0,.55A.27.27,0,0,0,224.37,106.4Z" fill="#b25636"></path><path d="M236.22,112.37c0-1.13,1-1.52,1.36-2.47.4-1.17-1.25-1.89-1.57-2.89a2.44,2.44,0,0,1-.06-1.43,1.87,1.87,0,0,0-.58,1.87c.31.81,1.84,1.34,1,2.35-.49.58-1.09,1-1.05,1.84a2,2,0,0,0,1.21,1.7l.06,0A1.62,1.62,0,0,1,236.22,112.37Z" fill="#fff"></path><path d="M135,109.91s-.55-27.95,9.09-29.33,7.8,25.4,7.8,25.4,2.41-10.6,1.55-16-1.64-10.3-8.76-11.29S133.5,93.77,133.76,110Z" fill="#350011"></path><path d="M131.6,109.8s21.6-1.26,22.42,0,5.69,19.16,4,20.23-30.87.35-31.68,0S130.5,111.82,131.6,109.8Z" fill="#350011"></path><path d="M168.06,114.56c-6-1.6-12.84-3.6-14-4.72s-2.31-4.2-3.2-7.07c-3.39-.3-6.48.63-9.84.09.82,3.66,2.22,8.4,5,12.21,2.32,3.21,6.29,3.83,14.77,5.35C161,117.84,167.68,117.11,168.06,114.56Z" fill="#ffc6b2"></path><path d="M159.74,120.33l11.54,1s5.28,4.37,6.94,3.54,2.74-3.35,3.05-4.57-3.28-4.18-3.28-4.18,2-.85,1.94-2.21-6.49,1.4-6.49,1.4L165.79,114" fill="#ffc6b2"></path><path d="M55.66,194.21c-4.58-2.46-20.6-12.6-25.14-15.12l32.21-11.58,20.64,11C78.58,181.05,62.29,190.11,55.66,194.21Z" opacity="0.32" fill="url(#linear-gradient-5)"></path><path d="M68.13,133.87v41.48s-39.86,2.21-39.86,0V133.87" fill="#68e1fd"></path><ellipse cx="48.2" cy="174.99" rx="19.93" ry="9.1" fill="#68e1fd"></ellipse><ellipse cx="48.2" cy="133.87" rx="19.93" ry="9.1" fill="#3129a3"></ellipse><path d="M60.62,140.95l-.14.07c-.76.27-1.54.51-2.33.71L63.58,96.3a2.72,2.72,0,0,1,2.78.51l-5.56,44Z" fill="#f78b72"></path><path d="M54.43,142.35,52.74,99.72a2.72,2.72,0,0,1,2.82.07L56.95,142A22.34,22.34,0,0,1,54.43,142.35Z" fill="#f78b72"></path><path d="M48.2,143,42.72,98.53l-11.09,5.86,4.49,37.34A33.91,33.91,0,0,0,48.2,143Z" fill="#fcb749"></path><path d="M352.34,175.86,346.21,174a61.53,61.53,0,0,0-7.73,4q-6.05,3.56-12.08,7.18C321.62,188,316.9,191,312.19,194l19.31,12.11,27.12-18.81Z" fill="url(#linear-gradient-6)"></path><path d="M337.13,172.35l3.23,15.06a3.39,3.39,0,0,0,1.82,2.33c1.88.92,5.75,1.88,13.11.54a3.41,3.41,0,0,0,2.72-2.62l3.31-15.31" fill="#68e1fd"></path><ellipse cx="349.23" cy="172.35" rx="12.09" ry="4.95" fill="#124577"></ellipse><path d="M342.19,161.2a3.88,3.88,0,0,1-1.4-1.3L334,149.37c-3.15-4.88-4.3-39.87,4-40.31,6.56-.35,13.31,15,15.66,19.47,2.2,4.2,4.61,8.67,5.92,13.25,2,6.9-2.51,12.94-6.76,18.42C350.72,162.83,344.93,162.72,342.19,161.2Z" fill="#66c652"></path><path d="M346.25,168.11q1.37,1,2.69,2a128.51,128.51,0,0,0-6.39-46,1.4,1.4,0,0,0-2.67.84A125.81,125.81,0,0,1,346.25,168.11Z" fill="#124577"></path><path d="M355.86,158.38a2.48,2.48,0,0,1-.16-1.21l.93-7.95c.43-3.68,14.09-21.36,18.33-18.22,3.37,2.5.46,12.79-.21,15.95a46.5,46.5,0,0,1-2.47,8.92c-1.83,4.2-6.5,5.35-10.81,6.31C359.4,162.65,356.59,160.24,355.86,158.38Z" fill="#49b230"></path><path d="M368.43,140.69a153.55,153.55,0,0,0-14.5,32.65,17.79,17.79,0,0,1,2,1.28,151.4,151.4,0,0,1,14.52-32.84C371.2,140.5,369.18,139.42,368.43,140.69Z" fill="#124577"></path></g></g></svg>